<svg width="489" height="154" viewBox="0 0 489 154" fill="none" xmlns="http://www.w3.org/2000/svg">
<mask id="path-1-outside-1_189_159" maskUnits="userSpaceOnUse" x="22" y="-0.560059" width="385" height="89" fill="black">
<rect fill="white" x="22" y="-0.560059" width="385" height="89"/>
<path d="M54.4984 87.2799C45.3784 87.2799 37.9384 85.3199 32.1784 81.3999C26.4984 77.3999 23.6584 71.7599 23.6584 64.4799C23.6584 63.7599 23.7384 62.6799 23.8984 61.2399H45.2584C45.0184 64.2799 45.7384 66.6799 47.4184 68.4399C49.0984 70.1999 51.6584 71.0799 55.0984 71.0799C58.2184 71.0799 60.6584 70.3999 62.4184 69.0399C64.2584 67.6799 65.1784 65.7599 65.1784 63.2799C65.1784 60.7199 64.0184 58.6399 61.6984 57.0399C59.4584 55.4399 55.9384 53.6399 51.1384 51.6399C46.4984 49.7199 42.6984 47.9199 39.7384 46.2399C36.8584 44.4799 34.3384 42.1199 32.1784 39.1599C30.0184 36.1999 28.9384 32.4799 28.9384 27.9999C28.8584 22.4799 30.2184 17.6799 33.0184 13.5999C35.8184 9.51994 39.6984 6.39993 44.6584 4.23993C49.6184 2.07994 55.2984 0.99994 61.6984 0.99994C67.4584 0.99994 72.5784 1.91994 77.0584 3.75994C81.5384 5.51994 85.0184 8.11994 87.4984 11.5599C89.9784 14.9199 91.2184 18.9199 91.2184 23.5599C91.2184 24.7599 91.1784 25.6399 91.0984 26.1999H69.2584C69.3384 25.8799 69.3784 25.3999 69.3784 24.7599C69.3784 22.5199 68.5784 20.7199 66.9784 19.3599C65.4584 17.9199 63.3384 17.1999 60.6184 17.1999C57.7384 17.1999 55.3784 17.9199 53.5384 19.3599C51.7784 20.7199 50.8984 22.5999 50.8984 24.9999C50.8984 27.3999 52.0184 29.4399 54.2584 31.1199C56.4984 32.7199 59.9784 34.5999 64.6984 36.7599C69.4184 38.9199 73.2584 40.9199 76.2184 42.7599C79.2584 44.5999 81.8584 47.0799 84.0184 50.1999C86.1784 53.2399 87.2584 56.9999 87.2584 61.4799C87.2584 66.4399 85.9384 70.8799 83.2984 74.7999C80.6584 78.7199 76.8584 81.7999 71.8984 84.0399C66.9384 86.1999 61.1384 87.2799 54.4984 87.2799ZM193.207 18.7599C200.407 18.7599 206.007 20.6799 210.007 24.5199C214.087 28.2799 216.127 33.5599 216.127 40.3599C216.127 42.4399 215.887 44.7599 215.407 47.3199L208.447 86.4399H188.047L194.527 50.0799C194.687 49.2799 194.767 48.1999 194.767 46.8399C194.767 43.4799 193.807 40.9199 191.887 39.1599C190.047 37.3999 187.447 36.5199 184.087 36.5199C180.087 36.5199 176.727 37.7199 174.007 40.1199C171.287 42.4399 169.567 45.7599 168.847 50.0799L162.367 86.4399H141.967L148.447 50.0799C148.607 49.2799 148.687 48.1999 148.687 46.8399C148.687 43.4799 147.727 40.9199 145.807 39.1599C143.967 37.3999 141.367 36.5199 138.007 36.5199C134.007 36.5199 130.647 37.7199 127.927 40.1199C125.207 42.4399 123.487 45.7599 122.767 50.0799V49.4799L116.287 86.4399H95.7669L107.527 19.4799H128.047L126.607 27.9999C129.167 25.1199 132.247 22.8799 135.847 21.2799C139.527 19.5999 143.487 18.7599 147.727 18.7599C152.847 18.7599 157.167 19.8399 160.687 21.9999C164.287 24.1599 166.847 27.2799 168.367 31.3599C171.327 27.5999 175.007 24.5599 179.407 22.2399C183.807 19.9199 188.407 18.7599 193.207 18.7599ZM224.818 52.8399C226.018 45.9599 228.378 39.9199 231.898 34.7199C235.418 29.5199 239.658 25.5199 244.618 22.7199C249.578 19.9199 254.818 18.5199 260.338 18.5199C265.058 18.5199 269.018 19.4799 272.218 21.3999C275.418 23.3199 277.738 25.8399 279.178 28.9599L280.858 19.4799H301.378L289.498 86.4399H268.978L270.778 76.9599C268.218 80.0799 264.978 82.5999 261.058 84.5199C257.138 86.4399 252.818 87.3999 248.098 87.3999C243.378 87.3999 239.178 86.3199 235.498 84.1599C231.898 81.9999 229.098 78.9599 227.098 75.0399C225.098 71.0399 224.098 66.3599 224.098 60.9999C224.098 58.4399 224.338 55.7199 224.818 52.8399ZM274.978 52.9599C275.218 51.5199 275.338 50.1999 275.338 48.9999C275.338 45.0799 274.178 41.9999 271.858 39.7599C269.618 37.5199 266.738 36.3999 263.218 36.3999C259.138 36.3999 255.418 37.8799 252.058 40.8399C248.698 43.7199 246.578 47.7199 245.698 52.8399C245.458 54.2799 245.338 55.5999 245.338 56.7999C245.338 60.7199 246.458 63.8399 248.698 66.1599C251.018 68.3999 253.898 69.5199 257.338 69.5199C261.418 69.5199 265.138 68.0399 268.498 65.0799C271.858 62.1199 274.018 58.0799 274.978 52.9599ZM334.563 31.5999C337.683 27.5999 341.243 24.4799 345.243 22.2399C349.323 19.9199 353.563 18.7599 357.963 18.7599L354.123 40.4799H348.483C343.363 40.4799 339.323 41.5999 336.363 43.8399C333.403 45.9999 331.443 49.8399 330.483 55.3599L324.963 86.4399H304.443L316.203 19.4799H336.723L334.563 31.5999ZM383.712 63.3999C383.632 63.7999 383.592 64.3199 383.592 64.9599C383.592 66.3999 383.992 67.4399 384.792 68.0799C385.672 68.7199 387.072 69.0399 388.992 69.0399H396.312L393.192 86.4399H382.752C369.312 86.4399 362.592 80.7999 362.592 69.5199C362.592 67.8399 362.792 65.7199 363.192 63.1599L367.992 36.5199H359.832L362.832 19.4799H370.992L373.872 3.15994H394.392L391.512 19.4799H404.952L401.952 36.5199H388.512L383.712 63.3999Z"/>
</mask>
<path d="M54.4984 87.2799C45.3784 87.2799 37.9384 85.3199 32.1784 81.3999C26.4984 77.3999 23.6584 71.7599 23.6584 64.4799C23.6584 63.7599 23.7384 62.6799 23.8984 61.2399H45.2584C45.0184 64.2799 45.7384 66.6799 47.4184 68.4399C49.0984 70.1999 51.6584 71.0799 55.0984 71.0799C58.2184 71.0799 60.6584 70.3999 62.4184 69.0399C64.2584 67.6799 65.1784 65.7599 65.1784 63.2799C65.1784 60.7199 64.0184 58.6399 61.6984 57.0399C59.4584 55.4399 55.9384 53.6399 51.1384 51.6399C46.4984 49.7199 42.6984 47.9199 39.7384 46.2399C36.8584 44.4799 34.3384 42.1199 32.1784 39.1599C30.0184 36.1999 28.9384 32.4799 28.9384 27.9999C28.8584 22.4799 30.2184 17.6799 33.0184 13.5999C35.8184 9.51994 39.6984 6.39993 44.6584 4.23993C49.6184 2.07994 55.2984 0.99994 61.6984 0.99994C67.4584 0.99994 72.5784 1.91994 77.0584 3.75994C81.5384 5.51994 85.0184 8.11994 87.4984 11.5599C89.9784 14.9199 91.2184 18.9199 91.2184 23.5599C91.2184 24.7599 91.1784 25.6399 91.0984 26.1999H69.2584C69.3384 25.8799 69.3784 25.3999 69.3784 24.7599C69.3784 22.5199 68.5784 20.7199 66.9784 19.3599C65.4584 17.9199 63.3384 17.1999 60.6184 17.1999C57.7384 17.1999 55.3784 17.9199 53.5384 19.3599C51.7784 20.7199 50.8984 22.5999 50.8984 24.9999C50.8984 27.3999 52.0184 29.4399 54.2584 31.1199C56.4984 32.7199 59.9784 34.5999 64.6984 36.7599C69.4184 38.9199 73.2584 40.9199 76.2184 42.7599C79.2584 44.5999 81.8584 47.0799 84.0184 50.1999C86.1784 53.2399 87.2584 56.9999 87.2584 61.4799C87.2584 66.4399 85.9384 70.8799 83.2984 74.7999C80.6584 78.7199 76.8584 81.7999 71.8984 84.0399C66.9384 86.1999 61.1384 87.2799 54.4984 87.2799ZM193.207 18.7599C200.407 18.7599 206.007 20.6799 210.007 24.5199C214.087 28.2799 216.127 33.5599 216.127 40.3599C216.127 42.4399 215.887 44.7599 215.407 47.3199L208.447 86.4399H188.047L194.527 50.0799C194.687 49.2799 194.767 48.1999 194.767 46.8399C194.767 43.4799 193.807 40.9199 191.887 39.1599C190.047 37.3999 187.447 36.5199 184.087 36.5199C180.087 36.5199 176.727 37.7199 174.007 40.1199C171.287 42.4399 169.567 45.7599 168.847 50.0799L162.367 86.4399H141.967L148.447 50.0799C148.607 49.2799 148.687 48.1999 148.687 46.8399C148.687 43.4799 147.727 40.9199 145.807 39.1599C143.967 37.3999 141.367 36.5199 138.007 36.5199C134.007 36.5199 130.647 37.7199 127.927 40.1199C125.207 42.4399 123.487 45.7599 122.767 50.0799V49.4799L116.287 86.4399H95.7669L107.527 19.4799H128.047L126.607 27.9999C129.167 25.1199 132.247 22.8799 135.847 21.2799C139.527 19.5999 143.487 18.7599 147.727 18.7599C152.847 18.7599 157.167 19.8399 160.687 21.9999C164.287 24.1599 166.847 27.2799 168.367 31.3599C171.327 27.5999 175.007 24.5599 179.407 22.2399C183.807 19.9199 188.407 18.7599 193.207 18.7599ZM224.818 52.8399C226.018 45.9599 228.378 39.9199 231.898 34.7199C235.418 29.5199 239.658 25.5199 244.618 22.7199C249.578 19.9199 254.818 18.5199 260.338 18.5199C265.058 18.5199 269.018 19.4799 272.218 21.3999C275.418 23.3199 277.738 25.8399 279.178 28.9599L280.858 19.4799H301.378L289.498 86.4399H268.978L270.778 76.9599C268.218 80.0799 264.978 82.5999 261.058 84.5199C257.138 86.4399 252.818 87.3999 248.098 87.3999C243.378 87.3999 239.178 86.3199 235.498 84.1599C231.898 81.9999 229.098 78.9599 227.098 75.0399C225.098 71.0399 224.098 66.3599 224.098 60.9999C224.098 58.4399 224.338 55.7199 224.818 52.8399ZM274.978 52.9599C275.218 51.5199 275.338 50.1999 275.338 48.9999C275.338 45.0799 274.178 41.9999 271.858 39.7599C269.618 37.5199 266.738 36.3999 263.218 36.3999C259.138 36.3999 255.418 37.8799 252.058 40.8399C248.698 43.7199 246.578 47.7199 245.698 52.8399C245.458 54.2799 245.338 55.5999 245.338 56.7999C245.338 60.7199 246.458 63.8399 248.698 66.1599C251.018 68.3999 253.898 69.5199 257.338 69.5199C261.418 69.5199 265.138 68.0399 268.498 65.0799C271.858 62.1199 274.018 58.0799 274.978 52.9599ZM334.563 31.5999C337.683 27.5999 341.243 24.4799 345.243 22.2399C349.323 19.9199 353.563 18.7599 357.963 18.7599L354.123 40.4799H348.483C343.363 40.4799 339.323 41.5999 336.363 43.8399C333.403 45.9999 331.443 49.8399 330.483 55.3599L324.963 86.4399H304.443L316.203 19.4799H336.723L334.563 31.5999ZM383.712 63.3999C383.632 63.7999 383.592 64.3199 383.592 64.9599C383.592 66.3999 383.992 67.4399 384.792 68.0799C385.672 68.7199 387.072 69.0399 388.992 69.0399H396.312L393.192 86.4399H382.752C369.312 86.4399 362.592 80.7999 362.592 69.5199C362.592 67.8399 362.792 65.7199 363.192 63.1599L367.992 36.5199H359.832L362.832 19.4799H370.992L373.872 3.15994H394.392L391.512 19.4799H404.952L401.952 36.5199H388.512L383.712 63.3999Z" fill="white"/>
<path d="M32.1784 81.3999L31.6027 82.2175L31.6092 82.2222L31.6158 82.2267L32.1784 81.3999ZM23.8984 61.2399V60.2399H23.0034L22.9046 61.1295L23.8984 61.2399ZM45.2584 61.2399L46.2553 61.3186L46.3405 60.2399H45.2584V61.2399ZM62.4184 69.0399L61.8241 68.2358L61.8155 68.2421L61.807 68.2487L62.4184 69.0399ZM61.6984 57.0399L61.1172 57.8537L61.1239 57.8585L61.1307 57.8632L61.6984 57.0399ZM51.1384 51.6399L51.5231 50.7169L51.5208 50.7159L51.1384 51.6399ZM39.7384 46.2399L39.217 47.0932L39.2308 47.1017L39.2448 47.1096L39.7384 46.2399ZM32.1784 39.1599L31.3706 39.7494L32.1784 39.1599ZM28.9384 27.9999H29.9384V27.9927L29.9383 27.9854L28.9384 27.9999ZM44.6584 4.23993L44.2592 3.3231V3.3231L44.6584 4.23993ZM77.0584 3.75994L76.6785 4.68496L76.6856 4.68788L76.6928 4.69069L77.0584 3.75994ZM87.4984 11.5599L86.6872 12.1448L86.6939 12.1538L87.4984 11.5599ZM91.0984 26.1999V27.1999H91.9657L92.0884 26.3414L91.0984 26.1999ZM69.2584 26.1999L68.2883 25.9574L67.9777 27.1999H69.2584V26.1999ZM66.9784 19.3599L66.2907 20.0859L66.3103 20.1044L66.3308 20.1219L66.9784 19.3599ZM53.5384 19.3599L54.1499 20.1512L54.1548 20.1474L53.5384 19.3599ZM54.2584 31.1199L53.6584 31.9199L53.6677 31.9269L53.6772 31.9337L54.2584 31.1199ZM64.6984 36.7599L65.1146 35.8506L64.6984 36.7599ZM76.2184 42.7599L75.6905 43.6093L75.7006 43.6154L76.2184 42.7599ZM84.0184 50.1999L83.1962 50.7692L83.2033 50.7791L84.0184 50.1999ZM83.2984 74.7999L84.1279 75.3585L83.2984 74.7999ZM71.8984 84.0399L72.2977 84.9569L72.31 84.9513L71.8984 84.0399ZM54.4984 87.2799V86.2799C45.5178 86.2799 38.2908 84.3502 32.7411 80.5732L32.1784 81.3999L31.6158 82.2267C37.586 86.2897 45.2391 88.2799 54.4984 88.2799V87.2799ZM32.1784 81.3999L32.7542 80.5823C27.3549 76.78 24.6584 71.4531 24.6584 64.4799H23.6584H22.6584C22.6584 72.0668 25.6419 78.0199 31.6027 82.2175L32.1784 81.3999ZM23.6584 64.4799H24.6584C24.6584 63.8175 24.7332 62.7826 24.8923 61.3504L23.8984 61.2399L22.9046 61.1295C22.7437 62.5773 22.6584 63.7024 22.6584 64.4799H23.6584ZM23.8984 61.2399V62.2399H45.2584V61.2399V60.2399H23.8984V61.2399ZM45.2584 61.2399L44.2615 61.1612C44.0052 64.4077 44.7709 67.1146 46.6951 69.1304L47.4184 68.4399L48.1418 67.7495C46.706 66.2453 46.0316 64.1522 46.2553 61.3186L45.2584 61.2399ZM47.4184 68.4399L46.6951 69.1304C48.6308 71.1583 51.5003 72.0799 55.0984 72.0799V71.0799V70.0799C51.8165 70.0799 49.5661 69.2416 48.1418 67.7495L47.4184 68.4399ZM55.0984 71.0799V72.0799C58.3525 72.0799 61.0364 71.3716 63.0299 69.8312L62.4184 69.0399L61.807 68.2487C60.2804 69.4283 58.0844 70.0799 55.0984 70.0799V71.0799ZM62.4184 69.0399L63.0128 69.8441C65.1318 68.2779 66.1784 66.0462 66.1784 63.2799H65.1784H64.1784C64.1784 65.4736 63.3851 67.082 61.8241 68.2358L62.4184 69.0399ZM65.1784 63.2799H66.1784C66.1784 60.3541 64.8248 57.9813 62.2662 56.2167L61.6984 57.0399L61.1307 57.8632C63.212 59.2986 64.1784 61.0858 64.1784 63.2799H65.1784ZM61.6984 57.0399L62.2797 56.2262C59.9463 54.5595 56.3427 52.7251 51.5231 50.7169L51.1384 51.6399L50.7538 52.563C55.5341 54.5548 58.9706 56.3204 61.1172 57.8537L61.6984 57.0399ZM51.1384 51.6399L51.5208 50.7159C46.9029 48.805 43.1436 47.0228 40.232 45.3703L39.7384 46.2399L39.2448 47.1096C42.2533 48.8171 46.094 50.6348 50.7561 52.564L51.1384 51.6399ZM39.7384 46.2399L40.2599 45.3867C37.501 43.7006 35.0757 41.4338 32.9862 38.5705L32.1784 39.1599L31.3706 39.7494C33.6012 42.8061 36.2159 45.2592 39.217 47.0932L39.7384 46.2399ZM32.1784 39.1599L32.9862 38.5705C30.9768 35.8168 29.9384 32.3161 29.9384 27.9999H28.9384H27.9384C27.9384 32.6438 29.0601 36.5831 31.3706 39.7494L32.1784 39.1599ZM28.9384 27.9999L29.9383 27.9854C29.861 22.6474 31.1734 18.0556 33.843 14.1658L33.0184 13.5999L32.1939 13.0341C29.2634 17.3042 27.8559 22.3125 27.9385 28.0144L28.9384 27.9999ZM33.0184 13.5999L33.843 14.1658C36.5271 10.2546 40.2529 7.24917 45.0577 5.15677L44.6584 4.23993L44.2592 3.3231C39.1439 5.5507 35.1098 8.78527 32.1939 13.0341L33.0184 13.5999ZM44.6584 4.23993L45.0577 5.15677C49.8709 3.06072 55.4111 1.99994 61.6984 1.99994V0.99994V-6.00815e-05C55.1858 -6.00815e-05 49.366 1.09915 44.2592 3.3231L44.6584 4.23993ZM61.6984 0.99994V1.99994C67.3523 1.99994 72.3396 2.9029 76.6785 4.68496L77.0584 3.75994L77.4384 2.83492C72.8173 0.936981 67.5646 -6.00815e-05 61.6984 -6.00815e-05V0.99994ZM77.0584 3.75994L76.6928 4.69069C81.019 6.39026 84.3341 8.88071 86.6873 12.1447L87.4984 11.5599L88.3096 10.9751C85.7028 7.35916 82.0579 4.64962 77.4241 2.82919L77.0584 3.75994ZM87.4984 11.5599L86.6939 12.1538C89.0329 15.3228 90.2184 19.1087 90.2184 23.5599H91.2184H92.2184C92.2184 18.7311 90.924 14.5171 88.303 10.9661L87.4984 11.5599ZM91.2184 23.5599H90.2184C90.2184 24.7529 90.1778 25.5731 90.1085 26.0585L91.0984 26.1999L92.0884 26.3414C92.179 25.7068 92.2184 24.767 92.2184 23.5599H91.2184ZM91.0984 26.1999V25.1999H69.2584V26.1999V27.1999H91.0984V26.1999ZM69.2584 26.1999L70.2286 26.4425C70.3392 26.0001 70.3784 25.4204 70.3784 24.7599H69.3784H68.3784C68.3784 25.3795 68.3377 25.7598 68.2883 25.9574L69.2584 26.1999ZM69.3784 24.7599H70.3784C70.3784 22.2488 69.4661 20.162 67.6261 18.598L66.9784 19.3599L66.3308 20.1219C67.6908 21.2779 68.3784 22.791 68.3784 24.7599H69.3784ZM66.9784 19.3599L67.6662 18.634C65.91 16.9702 63.5152 16.1999 60.6184 16.1999V17.1999V18.1999C63.1617 18.1999 65.0069 18.8696 66.2907 20.0859L66.9784 19.3599ZM60.6184 17.1999V16.1999C57.5683 16.1999 54.9759 16.9652 52.9221 18.5724L53.5384 19.3599L54.1548 20.1474C55.781 18.8747 57.9086 18.1999 60.6184 18.1999V17.1999ZM53.5384 19.3599L52.927 18.5687C50.9004 20.1346 49.8984 22.3185 49.8984 24.9999H50.8984H51.8984C51.8984 22.8814 52.6565 21.3052 54.1499 20.1512L53.5384 19.3599ZM50.8984 24.9999H49.8984C49.8984 27.7698 51.2142 30.0868 53.6584 31.9199L54.2584 31.1199L54.8584 30.3199C52.8227 28.7931 51.8984 27.0301 51.8984 24.9999H50.8984ZM54.2584 31.1199L53.6772 31.9337C55.9962 33.5901 59.5457 35.5016 64.2823 37.6692L64.6984 36.7599L65.1146 35.8506C60.4112 33.6983 57.0007 31.8498 54.8397 30.3062L54.2584 31.1199ZM64.6984 36.7599L64.2823 37.6692C68.9805 39.8193 72.7793 41.7995 75.6905 43.6092L76.2184 42.7599L76.7464 41.9107C73.7376 40.0404 69.8564 38.0206 65.1146 35.8506L64.6984 36.7599ZM76.2184 42.7599L75.7006 43.6154C78.6121 45.3776 81.1109 47.757 83.1963 50.7691L84.0184 50.1999L84.8406 49.6307C82.606 46.4029 79.9048 43.8222 76.7362 41.9044L76.2184 42.7599ZM84.0184 50.1999L83.2033 50.7791C85.2205 53.6182 86.2584 57.1648 86.2584 61.4799H87.2584H88.2584C88.2584 56.8351 87.1364 52.8617 84.8336 49.6207L84.0184 50.1999ZM87.2584 61.4799H86.2584C86.2584 66.2513 84.9922 70.4948 82.469 74.2413L83.2984 74.7999L84.1279 75.3585C86.8847 71.265 88.2584 66.6286 88.2584 61.4799H87.2584ZM83.2984 74.7999L82.469 74.2413C79.9478 77.985 76.3037 80.9532 71.4869 83.1286L71.8984 84.0399L72.31 84.9513C77.4132 82.6467 81.3691 79.4549 84.1279 75.3585L83.2984 74.7999ZM71.8984 84.0399L71.4992 83.1231C66.6903 85.2173 61.0315 86.2799 54.4984 86.2799V87.2799V88.2799C61.2454 88.2799 67.1866 87.1826 72.2977 84.9568L71.8984 84.0399ZM210.007 24.5199L209.314 25.2413L209.322 25.2484L209.329 25.2553L210.007 24.5199ZM215.407 47.3199L214.424 47.1356L214.422 47.1448L215.407 47.3199ZM208.447 86.4399V87.4399H209.285L209.431 86.6151L208.447 86.4399ZM188.047 86.4399L187.062 86.2645L186.853 87.4399H188.047V86.4399ZM194.527 50.0799L193.546 49.8838L193.544 49.8941L193.542 49.9045L194.527 50.0799ZM191.887 39.1599L191.196 39.8826L191.203 39.8899L191.211 39.8971L191.887 39.1599ZM174.007 40.1199L174.656 40.8808L174.662 40.8753L174.669 40.8698L174.007 40.1199ZM168.847 50.0799L169.831 50.2554L169.833 50.2443L168.847 50.0799ZM162.367 86.4399V87.4399H163.204L163.351 86.6154L162.367 86.4399ZM141.967 86.4399L140.982 86.2645L140.773 87.4399H141.967V86.4399ZM148.447 50.0799L147.466 49.8838L147.464 49.8941L147.462 49.9045L148.447 50.0799ZM145.807 39.1599L145.116 39.8826L145.123 39.8899L145.131 39.8971L145.807 39.1599ZM127.927 40.1199L128.576 40.8808L128.582 40.8753L128.589 40.8698L127.927 40.1199ZM122.767 50.0799H121.767L123.753 50.2443L122.767 50.0799ZM122.767 49.4799H123.767L121.782 49.3072L122.767 49.4799ZM116.287 86.4399V87.4399H117.127L117.272 86.6126L116.287 86.4399ZM95.7669 86.4399L94.782 86.267L94.5759 87.4399H95.7669V86.4399ZM107.527 19.4799V18.4799H106.687L106.542 19.307L107.527 19.4799ZM128.047 19.4799L129.033 19.6466L129.23 18.4799H128.047V19.4799ZM126.607 27.9999L125.621 27.8333L125.04 31.2674L127.354 28.6643L126.607 27.9999ZM135.847 21.2799L136.253 22.1938L136.262 22.1896L135.847 21.2799ZM160.687 21.9999L160.164 22.8523L160.172 22.8574L160.687 21.9999ZM168.367 31.3599L167.43 31.709L168.051 33.3774L169.153 31.9785L168.367 31.3599ZM179.407 22.2399L178.94 21.3554H178.94L179.407 22.2399ZM193.207 18.7599V19.7599C200.229 19.7599 205.551 21.6287 209.314 25.2413L210.007 24.5199L210.699 23.7985C206.463 19.7312 200.585 17.7599 193.207 17.7599V18.7599ZM210.007 24.5199L209.329 25.2553C213.159 28.7844 215.127 33.7714 215.127 40.3599H216.127H217.127C217.127 33.3484 215.015 27.7755 210.685 23.7846L210.007 24.5199ZM216.127 40.3599H215.127C215.127 42.365 214.895 44.622 214.424 47.1357L215.407 47.3199L216.39 47.5042C216.878 44.8979 217.127 42.5149 217.127 40.3599H216.127ZM215.407 47.3199L214.422 47.1448L207.462 86.2648L208.447 86.4399L209.431 86.6151L216.391 47.4951L215.407 47.3199ZM208.447 86.4399V85.4399H188.047V86.4399V87.4399H208.447V86.4399ZM188.047 86.4399L189.031 86.6154L195.511 50.2554L194.527 50.0799L193.542 49.9045L187.062 86.2645L188.047 86.4399ZM194.527 50.0799L195.507 50.2761C195.686 49.383 195.767 48.2285 195.767 46.8399H194.767H193.767C193.767 48.1714 193.688 49.1769 193.546 49.8838L194.527 50.0799ZM194.767 46.8399H195.767C195.767 43.2858 194.745 40.4235 192.563 38.4228L191.887 39.1599L191.211 39.8971C192.869 41.4164 193.767 43.6741 193.767 46.8399H194.767ZM191.887 39.1599L192.578 38.4373C190.499 36.4482 187.62 35.5199 184.087 35.5199V36.5199V37.5199C187.274 37.5199 189.595 38.3516 191.196 39.8826L191.887 39.1599ZM184.087 36.5199V35.5199C179.87 35.5199 176.267 36.7919 173.345 39.3701L174.007 40.1199L174.669 40.8698C177.187 38.648 180.304 37.5199 184.087 37.5199V36.5199ZM174.007 40.1199L173.358 39.3591C170.421 41.8642 168.61 45.4174 167.86 49.9155L168.847 50.0799L169.833 50.2443C170.524 46.1025 172.153 43.0157 174.656 40.8808L174.007 40.1199ZM168.847 50.0799L167.862 49.9045L161.382 86.2645L162.367 86.4399L163.351 86.6154L169.831 50.2554L168.847 50.0799ZM162.367 86.4399V85.4399H141.967V86.4399V87.4399H162.367V86.4399ZM141.967 86.4399L142.951 86.6154L149.431 50.2554L148.447 50.0799L147.462 49.9045L140.982 86.2645L141.967 86.4399ZM148.447 50.0799L149.427 50.2761C149.606 49.383 149.687 48.2285 149.687 46.8399H148.687H147.687C147.687 48.1714 147.608 49.1769 147.466 49.8838L148.447 50.0799ZM148.687 46.8399H149.687C149.687 43.2858 148.665 40.4235 146.483 38.4228L145.807 39.1599L145.131 39.8971C146.789 41.4164 147.687 43.6741 147.687 46.8399H148.687ZM145.807 39.1599L146.498 38.4373C144.419 36.4482 141.54 35.5199 138.007 35.5199V36.5199V37.5199C141.194 37.5199 143.515 38.3516 145.116 39.8826L145.807 39.1599ZM138.007 36.5199V35.5199C133.79 35.5199 130.187 36.7919 127.265 39.3701L127.927 40.1199L128.589 40.8698C131.107 38.648 134.224 37.5199 138.007 37.5199V36.5199ZM127.927 40.1199L127.278 39.3591C124.341 41.8642 122.53 45.4174 121.78 49.9155L122.767 50.0799L123.753 50.2443C124.444 46.1025 126.073 43.0157 128.576 40.8808L127.927 40.1199ZM122.767 50.0799H123.767V49.4799H122.767H121.767V50.0799H122.767ZM122.767 49.4799L121.782 49.3072L115.302 86.2673L116.287 86.4399L117.272 86.6126L123.752 49.6526L122.767 49.4799ZM116.287 86.4399V85.4399H95.7669V86.4399V87.4399H116.287V86.4399ZM95.7669 86.4399L96.7518 86.6129L108.512 19.6529L107.527 19.4799L106.542 19.307L94.782 86.267L95.7669 86.4399ZM107.527 19.4799V20.4799H128.047V19.4799V18.4799H107.527V19.4799ZM128.047 19.4799L127.061 19.3133L125.621 27.8333L126.607 27.9999L127.593 28.1666L129.033 19.6466L128.047 19.4799ZM126.607 27.9999L127.354 28.6643C129.817 25.8932 132.78 23.7372 136.253 22.1937L135.847 21.2799L135.441 20.3661C131.714 22.0227 128.516 24.3466 125.859 27.3356L126.607 27.9999ZM135.847 21.2799L136.262 22.1896C139.806 20.572 143.623 19.7599 147.727 19.7599V18.7599V17.7599C143.351 17.7599 139.248 18.6279 135.432 20.3702L135.847 21.2799ZM147.727 18.7599V19.7599C152.706 19.7599 156.835 20.8095 160.164 22.8523L160.687 21.9999L161.21 21.1476C157.499 18.8703 152.987 17.7599 147.727 17.7599V18.7599ZM160.687 21.9999L160.172 22.8574C163.57 24.8962 165.986 27.833 167.43 31.709L168.367 31.3599L169.304 31.0108C167.708 26.7269 165.003 23.4237 161.201 21.1424L160.687 21.9999ZM168.367 31.3599L169.153 31.9785C172.023 28.3329 175.592 25.3818 179.873 23.1245L179.407 22.2399L178.94 21.3554C174.422 23.7381 170.631 26.867 167.581 30.7414L168.367 31.3599ZM179.407 22.2399L179.873 23.1245C184.135 20.8775 188.575 19.7599 193.207 19.7599V18.7599V17.7599C188.238 17.7599 183.479 18.9624 178.94 21.3554L179.407 22.2399ZM224.818 52.8399L223.833 52.6681L223.832 52.6755L224.818 52.8399ZM231.898 34.7199L231.07 34.1594L231.898 34.7199ZM244.618 22.7199L245.11 23.5908L244.618 22.7199ZM272.218 21.3999L272.733 20.5424L272.218 21.3999ZM279.178 28.9599L278.27 29.379L279.606 32.2741L280.163 29.1344L279.178 28.9599ZM280.858 19.4799V18.4799H280.02L279.873 19.3054L280.858 19.4799ZM301.378 19.4799L302.363 19.6546L302.571 18.4799H301.378V19.4799ZM289.498 86.4399V87.4399H290.336L290.483 86.6146L289.498 86.4399ZM268.978 86.4399L267.996 86.2534L267.77 87.4399H268.978V86.4399ZM270.778 76.9599L271.761 77.1465L270.005 76.3256L270.778 76.9599ZM261.058 84.5199L261.498 85.418L261.058 84.5199ZM235.498 84.1599L234.984 85.0175L234.992 85.0224L235.498 84.1599ZM227.098 75.0399L226.204 75.4872L226.207 75.4944L227.098 75.0399ZM274.978 52.9599L275.961 53.1442L275.963 53.1343L275.965 53.1243L274.978 52.9599ZM271.858 39.7599L271.151 40.467L271.157 40.4732L271.164 40.4793L271.858 39.7599ZM252.058 40.8399L252.709 41.5993L252.719 41.5903L252.058 40.8399ZM245.698 52.8399L244.713 52.6705L244.712 52.6755L245.698 52.8399ZM248.698 66.1599L247.979 66.8545L247.991 66.8672L248.004 66.8793L248.698 66.1599ZM268.498 65.0799L269.159 65.8303L268.498 65.0799ZM224.818 52.8399L225.803 53.0118C226.982 46.2553 229.294 40.351 232.726 35.2805L231.898 34.7199L231.07 34.1594C227.462 39.4889 225.055 45.6646 223.833 52.6681L224.818 52.8399ZM231.898 34.7199L232.726 35.2805C236.169 30.1952 240.298 26.3072 245.11 23.5908L244.618 22.7199L244.127 21.8491C239.019 24.7327 234.668 28.8446 231.07 34.1594L231.898 34.7199ZM244.618 22.7199L245.11 23.5908C249.925 20.8726 254.996 19.5199 260.338 19.5199V18.5199V17.5199C254.64 17.5199 249.232 18.9672 244.127 21.8491L244.618 22.7199ZM260.338 18.5199V19.5199C264.924 19.5199 268.695 20.4524 271.704 22.2574L272.218 21.3999L272.733 20.5424C269.341 18.5075 265.192 17.5199 260.338 17.5199V18.5199ZM272.218 21.3999L271.704 22.2574C274.747 24.0834 276.922 26.4571 278.27 29.379L279.178 28.9599L280.086 28.5409C278.555 25.2228 276.089 22.5565 272.733 20.5424L272.218 21.3999ZM279.178 28.9599L280.163 29.1344L281.843 19.6544L280.858 19.4799L279.873 19.3054L278.193 28.7854L279.178 28.9599ZM280.858 19.4799V20.4799H301.378V19.4799V18.4799H280.858V19.4799ZM301.378 19.4799L300.393 19.3052L288.514 86.2653L289.498 86.4399L290.483 86.6146L302.363 19.6546L301.378 19.4799ZM289.498 86.4399V85.4399H268.978V86.4399V87.4399H289.498V86.4399ZM268.978 86.4399L269.961 86.6265L271.761 77.1465L270.778 76.9599L269.796 76.7734L267.996 86.2534L268.978 86.4399ZM270.778 76.9599L270.005 76.3256C267.543 79.326 264.42 81.7597 260.618 83.6219L261.058 84.5199L261.498 85.418C265.536 83.4402 268.893 80.8338 271.551 77.5943L270.778 76.9599ZM261.058 84.5199L260.618 83.6219C256.846 85.4695 252.678 86.3999 248.098 86.3999V87.3999V88.3999C252.958 88.3999 257.43 87.4104 261.498 85.418L261.058 84.5199ZM248.098 87.3999V86.3999C243.537 86.3999 239.515 85.3581 236.004 83.2975L235.498 84.1599L234.992 85.0224C238.841 87.2818 243.22 88.3999 248.098 88.3999V87.3999ZM235.498 84.1599L236.013 83.3025C232.581 81.2436 229.908 78.347 227.989 74.5855L227.098 75.0399L226.207 75.4944C228.288 79.5729 231.215 82.7562 234.984 85.0174L235.498 84.1599ZM227.098 75.0399L227.993 74.5927C226.074 70.7565 225.098 66.2352 225.098 60.9999H224.098H223.098C223.098 66.4847 224.122 71.3234 226.204 75.4872L227.098 75.0399ZM224.098 60.9999H225.098C225.098 58.5021 225.332 55.8374 225.805 53.0043L224.818 52.8399L223.832 52.6755C223.344 55.6025 223.098 58.3778 223.098 60.9999H224.098ZM274.978 52.9599L275.965 53.1243C276.212 51.6412 276.338 50.2653 276.338 48.9999H275.338H274.338C274.338 50.1346 274.225 51.3987 273.992 52.7955L274.978 52.9599ZM275.338 48.9999H276.338C276.338 44.8713 275.109 41.5085 272.553 39.0405L271.858 39.7599L271.164 40.4793C273.247 42.4914 274.338 45.2886 274.338 48.9999H275.338ZM271.858 39.7599L272.565 39.0528C270.116 36.6036 266.971 35.3999 263.218 35.3999V36.3999V37.3999C266.505 37.3999 269.12 38.4362 271.151 40.467L271.858 39.7599ZM263.218 36.3999V35.3999C258.87 35.3999 254.921 36.9856 251.397 40.0896L252.058 40.8399L252.719 41.5903C255.916 38.7743 259.406 37.3999 263.218 37.3999V36.3999ZM252.058 40.8399L251.407 40.0807C247.841 43.1378 245.625 47.3628 244.713 52.6706L245.698 52.8399L246.684 53.0093C247.531 48.0771 249.556 44.302 252.709 41.5992L252.058 40.8399ZM245.698 52.8399L244.712 52.6755C244.465 54.1587 244.338 55.5346 244.338 56.7999H245.338H246.338C246.338 55.6653 246.452 54.4012 246.685 53.0043L245.698 52.8399ZM245.338 56.7999H244.338C244.338 60.9199 245.521 64.3095 247.979 66.8545L248.698 66.1599L249.418 65.4653C247.395 63.3704 246.338 60.52 246.338 56.7999H245.338ZM248.698 66.1599L248.004 66.8793C250.523 69.3121 253.658 70.5199 257.338 70.5199V69.5199V68.5199C254.138 68.5199 251.513 67.4877 249.393 65.4405L248.698 66.1599ZM257.338 69.5199V70.5199C261.686 70.5199 265.636 68.9343 269.159 65.8303L268.498 65.0799L267.837 64.3296C264.641 67.1456 261.15 68.5199 257.338 68.5199V69.5199ZM268.498 65.0799L269.159 65.8303C272.713 62.6995 274.967 58.4462 275.961 53.1442L274.978 52.9599L273.995 52.7757C273.069 57.7137 271.003 61.5404 267.837 64.3296L268.498 65.0799ZM334.563 31.5999L333.579 31.4245L335.352 32.215L334.563 31.5999ZM345.243 22.2399L345.732 23.1125L345.738 23.1092L345.243 22.2399ZM357.963 18.7599L358.948 18.934L359.156 17.7599H357.963V18.7599ZM354.123 40.4799V41.4799H354.962L355.108 40.654L354.123 40.4799ZM336.363 43.8399L336.953 44.6477L336.96 44.6426L336.967 44.6373L336.363 43.8399ZM330.483 55.3599L331.468 55.5348L331.469 55.5313L330.483 55.3599ZM324.963 86.4399V87.4399H325.801L325.948 86.6148L324.963 86.4399ZM304.443 86.4399L303.458 86.267L303.252 87.4399H304.443V86.4399ZM316.203 19.4799V18.4799H315.364L315.218 19.307L316.203 19.4799ZM336.723 19.4799L337.708 19.6554L337.917 18.4799H336.723V19.4799ZM334.563 31.5999L335.352 32.215C338.399 28.3087 341.86 25.2808 345.732 23.1124L345.243 22.2399L344.755 21.3674C340.627 23.6791 336.968 26.8912 333.775 30.9849L334.563 31.5999ZM345.243 22.2399L345.738 23.1092C349.677 20.869 353.748 19.7599 357.963 19.7599V18.7599V17.7599C353.379 17.7599 348.969 18.9709 344.749 21.3706L345.243 22.2399ZM357.963 18.7599L356.979 18.5858L353.139 40.3058L354.123 40.4799L355.108 40.654L358.948 18.934L357.963 18.7599ZM354.123 40.4799V39.4799H348.483V40.4799V41.4799H354.123V40.4799ZM348.483 40.4799V39.4799C343.227 39.4799 338.949 40.6293 335.76 43.0425L336.363 43.8399L336.967 44.6373C339.698 42.5705 343.5 41.4799 348.483 41.4799V40.4799ZM336.363 43.8399L335.774 43.0321C332.517 45.4089 330.48 49.545 329.498 55.1886L330.483 55.3599L331.469 55.5313C332.407 50.1349 334.29 46.5909 336.953 44.6477L336.363 43.8399ZM330.483 55.3599L329.499 55.1851L323.979 86.2651L324.963 86.4399L325.948 86.6148L331.468 55.5348L330.483 55.3599ZM324.963 86.4399V85.4399H304.443V86.4399V87.4399H324.963V86.4399ZM304.443 86.4399L305.428 86.6129L317.188 19.6529L316.203 19.4799L315.218 19.307L303.458 86.267L304.443 86.4399ZM316.203 19.4799V20.4799H336.723V19.4799V18.4799H316.203V19.4799ZM336.723 19.4799L335.739 19.3045L333.579 31.4245L334.563 31.5999L335.548 31.7754L337.708 19.6554L336.723 19.4799ZM383.712 63.3999L384.692 63.5961L384.694 63.5859L384.696 63.5757L383.712 63.3999ZM384.792 68.0799L384.167 68.8608L384.185 68.8752L384.203 68.8887L384.792 68.0799ZM396.312 69.0399L397.296 69.2164L397.507 68.0399H396.312V69.0399ZM393.192 86.4399V87.4399H394.028L394.176 86.6164L393.192 86.4399ZM363.192 63.1599L362.207 62.9826L362.205 62.9941L362.204 63.0056L363.192 63.1599ZM367.992 36.5199L368.976 36.6973L369.188 35.5199H367.992V36.5199ZM359.832 36.5199L358.847 36.3465L358.64 37.5199H359.832V36.5199ZM362.832 19.4799V18.4799H361.992L361.847 19.3065L362.832 19.4799ZM370.992 19.4799V20.4799H371.831L371.976 19.6537L370.992 19.4799ZM373.872 3.15994V2.15994H373.033L372.887 2.98616L373.872 3.15994ZM394.392 3.15994L395.376 3.33373L395.583 2.15994H394.392V3.15994ZM391.512 19.4799L390.527 19.3062L390.32 20.4799H391.512V19.4799ZM404.952 19.4799L405.936 19.6533L406.143 18.4799H404.952V19.4799ZM401.952 36.5199V37.5199H402.791L402.936 36.6933L401.952 36.5199ZM388.512 36.5199V35.5199H387.674L387.527 36.3442L388.512 36.5199ZM383.712 63.3999L382.731 63.2038C382.633 63.694 382.592 64.2867 382.592 64.9599H383.592H384.592C384.592 64.3532 384.63 63.9059 384.692 63.5961L383.712 63.3999ZM383.592 64.9599H382.592C382.592 66.5742 383.044 67.9627 384.167 68.8608L384.792 68.0799L385.416 67.2991C384.939 66.9172 384.592 66.2257 384.592 64.9599H383.592ZM384.792 68.0799L384.203 68.8887C385.342 69.7167 387.003 70.0399 388.992 70.0399V69.0399V68.0399C387.14 68.0399 386.001 67.7232 385.38 67.2712L384.792 68.0799ZM388.992 69.0399V70.0399H396.312V69.0399V68.0399H388.992V69.0399ZM396.312 69.0399L395.327 68.8634L392.207 86.2634L393.192 86.4399L394.176 86.6164L397.296 69.2164L396.312 69.0399ZM393.192 86.4399V85.4399H382.752V86.4399V87.4399H393.192V86.4399ZM382.752 86.4399V85.4399C376.147 85.4399 371.38 84.0505 368.274 81.444C365.202 78.8656 363.592 74.9553 363.592 69.5199H362.592H361.592C361.592 75.3645 363.341 79.9143 366.989 82.9759C370.603 86.0093 375.916 87.4399 382.752 87.4399V86.4399ZM362.592 69.5199H363.592C363.592 67.9114 363.784 65.8475 364.18 63.3143L363.192 63.1599L362.204 63.0056C361.799 65.5924 361.592 67.7685 361.592 69.5199H362.592ZM363.192 63.1599L364.176 63.3373L368.976 36.6973L367.992 36.5199L367.007 36.3426L362.207 62.9826L363.192 63.1599ZM367.992 36.5199V35.5199H359.832V36.5199V37.5199H367.992V36.5199ZM359.832 36.5199L360.816 36.6933L363.816 19.6533L362.832 19.4799L361.847 19.3065L358.847 36.3465L359.832 36.5199ZM362.832 19.4799V20.4799H370.992V19.4799V18.4799H362.832V19.4799ZM370.992 19.4799L371.976 19.6537L374.856 3.33373L373.872 3.15994L372.887 2.98616L370.007 19.3062L370.992 19.4799ZM373.872 3.15994V4.15994H394.392V3.15994V2.15994H373.872V3.15994ZM394.392 3.15994L393.407 2.98616L390.527 19.3062L391.512 19.4799L392.496 19.6537L395.376 3.33373L394.392 3.15994ZM391.512 19.4799V20.4799H404.952V19.4799V18.4799H391.512V19.4799ZM404.952 19.4799L403.967 19.3065L400.967 36.3465L401.952 36.5199L402.936 36.6933L405.936 19.6533L404.952 19.4799ZM401.952 36.5199V35.5199H388.512V36.5199V37.5199H401.952V36.5199ZM388.512 36.5199L387.527 36.3442L382.727 63.2242L383.712 63.3999L384.696 63.5757L389.496 36.6957L388.512 36.5199Z" fill="black" mask="url(#path-1-outside-1_189_159)"/>
<mask id="path-3-outside-2_189_159" maskUnits="userSpaceOnUse" x="140" y="70.4399" width="275" height="81" fill="black">
<rect fill="white" x="140" y="70.4399" width="275" height="81"/>
<path d="M141.802 112.48C143.062 105.2 145.757 98.7249 149.887 93.0549C154.087 87.3149 159.267 82.8699 165.427 79.7199C171.587 76.4999 178.237 74.8899 185.377 74.8899C194.127 74.8899 201.197 77.1999 206.587 81.8199C212.047 86.4399 215.127 92.7399 215.827 100.72H196.087C195.177 97.7099 193.497 95.4349 191.047 93.8949C188.667 92.2849 185.727 91.4799 182.227 91.4799C176.697 91.4799 171.902 93.4049 167.842 97.2549C163.782 101.035 161.192 106.11 160.072 112.48C159.722 114.44 159.547 116.155 159.547 117.625C159.547 122.525 160.912 126.41 163.642 129.28C166.372 132.15 170.117 133.585 174.877 133.585C178.307 133.585 181.492 132.78 184.432 131.17C187.442 129.56 189.962 127.25 191.992 124.24H211.732C208.232 132.22 202.947 138.52 195.877 143.14C188.807 147.69 180.897 149.965 172.147 149.965C165.847 149.965 160.352 148.74 155.662 146.29C150.972 143.84 147.367 140.375 144.847 135.895C142.327 131.415 141.067 126.2 141.067 120.25C141.067 117.59 141.312 115 141.802 112.48ZM219.992 120.04C221.042 114.02 223.107 108.735 226.187 104.185C229.267 99.6349 232.977 96.1349 237.317 93.6849C241.657 91.2349 246.242 90.0099 251.072 90.0099C255.202 90.0099 258.667 90.8499 261.467 92.5299C264.267 94.2099 266.297 96.4149 267.557 99.1449L269.027 90.8499H286.982L276.587 149.44H258.632L260.207 141.145C257.967 143.875 255.132 146.08 251.702 147.76C248.272 149.44 244.492 150.28 240.362 150.28C236.232 150.28 232.557 149.335 229.337 147.445C226.187 145.555 223.737 142.895 221.987 139.465C220.237 135.965 219.362 131.87 219.362 127.18C219.362 124.94 219.572 122.56 219.992 120.04ZM263.882 120.145C264.092 118.885 264.197 117.73 264.197 116.68C264.197 113.25 263.182 110.555 261.152 108.595C259.192 106.635 256.672 105.655 253.592 105.655C250.022 105.655 246.767 106.95 243.827 109.54C240.887 112.06 239.032 115.56 238.262 120.04C238.052 121.3 237.947 122.455 237.947 123.505C237.947 126.935 238.927 129.665 240.887 131.695C242.917 133.655 245.437 134.635 248.447 134.635C252.017 134.635 255.272 133.34 258.212 130.75C261.152 128.16 263.042 124.625 263.882 120.145ZM314.037 150.28C309.417 150.28 305.252 149.545 301.542 148.075C297.902 146.605 295.032 144.575 292.932 141.985C290.832 139.325 289.782 136.28 289.782 132.85C289.782 132.36 289.852 131.485 289.992 130.225H307.317C307.177 132.395 307.807 134.145 309.207 135.475C310.677 136.735 312.742 137.365 315.402 137.365C317.642 137.365 319.497 136.945 320.967 136.105C322.437 135.265 323.172 134.075 323.172 132.535C323.172 131.065 322.367 129.91 320.757 129.07C319.217 128.16 316.627 127.075 312.987 125.815C309.207 124.555 306.022 123.33 303.432 122.14C300.912 120.88 298.742 119.095 296.922 116.785C295.102 114.475 294.192 111.57 294.192 108.07C294.192 104.64 295.207 101.56 297.237 98.8299C299.267 96.0299 302.102 93.8599 305.742 92.3199C309.452 90.7799 313.722 90.0099 318.552 90.0099C323.382 90.0099 327.582 90.8149 331.152 92.4249C334.722 93.9649 337.487 96.1349 339.447 98.9349C341.407 101.735 342.387 104.885 342.387 108.385L342.282 109.96H326.007C326.147 107.86 325.517 106.18 324.117 104.92C322.717 103.66 320.722 103.03 318.132 103.03C316.102 103.03 314.422 103.45 313.092 104.29C311.832 105.13 311.202 106.285 311.202 107.755C311.202 109.295 312.042 110.59 313.722 111.64C315.472 112.62 318.167 113.74 321.807 115C325.587 116.26 328.702 117.52 331.152 118.78C333.672 119.97 335.807 121.685 337.557 123.925C339.377 126.095 340.287 128.825 340.287 132.115C340.287 135.895 339.132 139.15 336.822 141.88C334.582 144.61 331.467 146.71 327.477 148.18C323.557 149.58 319.077 150.28 314.037 150.28ZM394.737 90.2199C400.477 90.2199 404.992 91.8649 408.282 95.1549C411.642 98.4449 413.322 103.03 413.322 108.91C413.322 110.87 413.112 112.97 412.692 115.21L406.602 149.44H388.752L394.422 117.625C394.632 116.435 394.737 115.385 394.737 114.475C394.737 111.535 393.897 109.26 392.217 107.65C390.607 106.04 388.332 105.235 385.392 105.235C381.892 105.235 378.952 106.32 376.572 108.49C374.192 110.66 372.652 113.705 371.952 117.625V117.415L366.282 149.44H348.327L362.082 71.7399H380.037L375.312 98.6199C377.622 96.0299 380.457 93.9999 383.817 92.5299C387.177 90.9899 390.817 90.2199 394.737 90.2199Z"/>
</mask>
<path d="M141.802 112.48C143.062 105.2 145.757 98.7249 149.887 93.0549C154.087 87.3149 159.267 82.8699 165.427 79.7199C171.587 76.4999 178.237 74.8899 185.377 74.8899C194.127 74.8899 201.197 77.1999 206.587 81.8199C212.047 86.4399 215.127 92.7399 215.827 100.72H196.087C195.177 97.7099 193.497 95.4349 191.047 93.8949C188.667 92.2849 185.727 91.4799 182.227 91.4799C176.697 91.4799 171.902 93.4049 167.842 97.2549C163.782 101.035 161.192 106.11 160.072 112.48C159.722 114.44 159.547 116.155 159.547 117.625C159.547 122.525 160.912 126.41 163.642 129.28C166.372 132.15 170.117 133.585 174.877 133.585C178.307 133.585 181.492 132.78 184.432 131.17C187.442 129.56 189.962 127.25 191.992 124.24H211.732C208.232 132.22 202.947 138.52 195.877 143.14C188.807 147.69 180.897 149.965 172.147 149.965C165.847 149.965 160.352 148.74 155.662 146.29C150.972 143.84 147.367 140.375 144.847 135.895C142.327 131.415 141.067 126.2 141.067 120.25C141.067 117.59 141.312 115 141.802 112.48ZM219.992 120.04C221.042 114.02 223.107 108.735 226.187 104.185C229.267 99.6349 232.977 96.1349 237.317 93.6849C241.657 91.2349 246.242 90.0099 251.072 90.0099C255.202 90.0099 258.667 90.8499 261.467 92.5299C264.267 94.2099 266.297 96.4149 267.557 99.1449L269.027 90.8499H286.982L276.587 149.44H258.632L260.207 141.145C257.967 143.875 255.132 146.08 251.702 147.76C248.272 149.44 244.492 150.28 240.362 150.28C236.232 150.28 232.557 149.335 229.337 147.445C226.187 145.555 223.737 142.895 221.987 139.465C220.237 135.965 219.362 131.87 219.362 127.18C219.362 124.94 219.572 122.56 219.992 120.04ZM263.882 120.145C264.092 118.885 264.197 117.73 264.197 116.68C264.197 113.25 263.182 110.555 261.152 108.595C259.192 106.635 256.672 105.655 253.592 105.655C250.022 105.655 246.767 106.95 243.827 109.54C240.887 112.06 239.032 115.56 238.262 120.04C238.052 121.3 237.947 122.455 237.947 123.505C237.947 126.935 238.927 129.665 240.887 131.695C242.917 133.655 245.437 134.635 248.447 134.635C252.017 134.635 255.272 133.34 258.212 130.75C261.152 128.16 263.042 124.625 263.882 120.145ZM314.037 150.28C309.417 150.28 305.252 149.545 301.542 148.075C297.902 146.605 295.032 144.575 292.932 141.985C290.832 139.325 289.782 136.28 289.782 132.85C289.782 132.36 289.852 131.485 289.992 130.225H307.317C307.177 132.395 307.807 134.145 309.207 135.475C310.677 136.735 312.742 137.365 315.402 137.365C317.642 137.365 319.497 136.945 320.967 136.105C322.437 135.265 323.172 134.075 323.172 132.535C323.172 131.065 322.367 129.91 320.757 129.07C319.217 128.16 316.627 127.075 312.987 125.815C309.207 124.555 306.022 123.33 303.432 122.14C300.912 120.88 298.742 119.095 296.922 116.785C295.102 114.475 294.192 111.57 294.192 108.07C294.192 104.64 295.207 101.56 297.237 98.8299C299.267 96.0299 302.102 93.8599 305.742 92.3199C309.452 90.7799 313.722 90.0099 318.552 90.0099C323.382 90.0099 327.582 90.8149 331.152 92.4249C334.722 93.9649 337.487 96.1349 339.447 98.9349C341.407 101.735 342.387 104.885 342.387 108.385L342.282 109.96H326.007C326.147 107.86 325.517 106.18 324.117 104.92C322.717 103.66 320.722 103.03 318.132 103.03C316.102 103.03 314.422 103.45 313.092 104.29C311.832 105.13 311.202 106.285 311.202 107.755C311.202 109.295 312.042 110.59 313.722 111.64C315.472 112.62 318.167 113.74 321.807 115C325.587 116.26 328.702 117.52 331.152 118.78C333.672 119.97 335.807 121.685 337.557 123.925C339.377 126.095 340.287 128.825 340.287 132.115C340.287 135.895 339.132 139.15 336.822 141.88C334.582 144.61 331.467 146.71 327.477 148.18C323.557 149.58 319.077 150.28 314.037 150.28ZM394.737 90.2199C400.477 90.2199 404.992 91.8649 408.282 95.1549C411.642 98.4449 413.322 103.03 413.322 108.91C413.322 110.87 413.112 112.97 412.692 115.21L406.602 149.44H388.752L394.422 117.625C394.632 116.435 394.737 115.385 394.737 114.475C394.737 111.535 393.897 109.26 392.217 107.65C390.607 106.04 388.332 105.235 385.392 105.235C381.892 105.235 378.952 106.32 376.572 108.49C374.192 110.66 372.652 113.705 371.952 117.625V117.415L366.282 149.44H348.327L362.082 71.7399H380.037L375.312 98.6199C377.622 96.0299 380.457 93.9999 383.817 92.5299C387.177 90.9899 390.817 90.2199 394.737 90.2199Z" fill="white"/>
<path d="M141.802 112.48L142.783 112.671L142.785 112.661L142.787 112.65L141.802 112.48ZM149.887 93.0549L149.08 92.4644L149.078 92.4662L149.887 93.0549ZM165.427 79.7199L165.882 80.6103L165.89 80.6062L165.427 79.7199ZM206.587 81.8199L205.936 82.5792L205.941 82.5833L206.587 81.8199ZM215.827 100.72V101.72H216.918L216.823 100.633L215.827 100.72ZM196.087 100.72L195.129 101.009L195.344 101.72H196.087V100.72ZM191.047 93.8949L190.486 94.7232L190.5 94.7326L190.514 94.7416L191.047 93.8949ZM167.842 97.2549L168.523 97.9869L168.53 97.9806L167.842 97.2549ZM160.072 112.48L161.056 112.656L161.056 112.653L160.072 112.48ZM163.642 129.28L162.917 129.969L163.642 129.28ZM184.432 131.17L183.96 130.288L183.951 130.293L184.432 131.17ZM191.992 124.24V123.24H191.46L191.162 123.681L191.992 124.24ZM211.732 124.24L212.647 124.642L213.262 123.24H211.732V124.24ZM195.877 143.14L196.418 143.981L196.424 143.977L195.877 143.14ZM155.662 146.29L155.199 147.176L155.662 146.29ZM144.847 135.895L143.975 136.385L144.847 135.895ZM141.802 112.48L142.787 112.65C144.022 105.513 146.66 99.1831 150.695 93.6437L149.887 93.0549L149.078 92.4662C144.853 98.2668 142.101 104.887 140.816 112.309L141.802 112.48ZM149.887 93.0549L150.694 93.6455C154.804 88.0278 159.865 83.6871 165.882 80.6103L165.427 79.7199L164.971 78.8296C158.668 82.0527 153.369 86.602 149.08 92.4644L149.887 93.0549ZM165.427 79.7199L165.89 80.6062C171.903 77.463 178.393 75.8899 185.377 75.8899V74.8899V73.8899C178.08 73.8899 171.27 75.5369 164.963 78.8337L165.427 79.7199ZM185.377 74.8899V75.8899C193.945 75.8899 200.766 78.1483 205.936 82.5792L206.587 81.8199L207.237 81.0607C201.627 76.2516 194.308 73.8899 185.377 73.8899V74.8899ZM206.587 81.8199L205.941 82.5833C211.174 87.0119 214.15 93.0556 214.83 100.807L215.827 100.72L216.823 100.633C216.103 92.4243 212.919 85.868 207.233 81.0566L206.587 81.8199ZM215.827 100.72V99.7199H196.087V100.72V101.72H215.827V100.72ZM196.087 100.72L197.044 100.431C196.07 97.2112 194.251 94.7282 191.579 93.0483L191.047 93.8949L190.514 94.7416C192.742 96.1417 194.283 98.2087 195.129 101.009L196.087 100.72ZM191.047 93.8949L191.607 93.0667C189.028 91.3224 185.882 90.4799 182.227 90.4799V91.4799V92.4799C185.571 92.4799 188.305 93.2475 190.486 94.7232L191.047 93.8949ZM182.227 91.4799V90.4799C176.437 90.4799 171.397 92.5055 167.153 96.5293L167.842 97.2549L168.53 97.9806C172.406 94.3044 176.956 92.4799 182.227 92.4799V91.4799ZM167.842 97.2549L167.16 96.523C162.915 100.475 160.238 105.759 159.087 112.307L160.072 112.48L161.056 112.653C162.145 106.46 164.648 101.595 168.523 97.9868L167.842 97.2549ZM160.072 112.48L159.087 112.304C158.73 114.303 158.547 116.079 158.547 117.625H159.547H160.547C160.547 116.23 160.713 114.577 161.056 112.656L160.072 112.48ZM159.547 117.625H158.547C158.547 122.718 159.971 126.872 162.917 129.969L163.642 129.28L164.366 128.591C161.853 125.948 160.547 122.332 160.547 117.625H159.547ZM163.642 129.28L162.917 129.969C165.873 133.077 169.902 134.585 174.877 134.585V133.585V132.585C170.331 132.585 166.87 131.223 164.366 128.591L163.642 129.28ZM174.877 133.585V134.585C178.47 134.585 181.821 133.74 184.912 132.047L184.432 131.17L183.951 130.293C181.162 131.82 178.143 132.585 174.877 132.585V133.585ZM184.432 131.17L184.903 132.052C188.066 130.36 190.706 127.935 192.821 124.799L191.992 124.24L191.162 123.681C189.218 126.565 186.817 128.76 183.96 130.288L184.432 131.17ZM191.992 124.24V125.24H211.732V124.24V123.24H191.992V124.24ZM211.732 124.24L210.816 123.838C207.391 131.646 202.232 137.793 195.33 142.303L195.877 143.14L196.424 143.977C203.662 139.247 209.072 132.794 212.647 124.642L211.732 124.24ZM195.877 143.14L195.335 142.299C188.434 146.741 180.713 148.965 172.147 148.965V149.965V150.965C181.08 150.965 189.18 148.639 196.418 143.981L195.877 143.14ZM172.147 149.965V148.965C165.977 148.965 160.647 147.766 156.125 145.404L155.662 146.29L155.199 147.176C160.056 149.714 165.716 150.965 172.147 150.965V149.965ZM155.662 146.29L156.125 145.404C151.601 143.04 148.14 139.711 145.718 135.405L144.847 135.895L143.975 136.385C146.593 141.039 150.342 144.639 155.199 147.176L155.662 146.29ZM144.847 135.895L145.718 135.405C143.295 131.097 142.067 126.056 142.067 120.25H141.067H140.067C140.067 126.344 141.358 131.733 143.975 136.385L144.847 135.895ZM141.067 120.25H142.067C142.067 117.652 142.306 115.126 142.783 112.671L141.802 112.48L140.82 112.289C140.317 114.874 140.067 117.528 140.067 120.25H141.067ZM219.992 120.04L219.007 119.868L219.006 119.876L219.992 120.04ZM226.187 104.185L225.359 103.624L226.187 104.185ZM237.317 93.6849L237.809 94.5558L237.317 93.6849ZM261.467 92.5299L261.982 91.6724L261.467 92.5299ZM267.557 99.1449L266.649 99.564L267.985 102.459L268.542 99.3194L267.557 99.1449ZM269.027 90.8499V89.8499H268.189L268.042 90.6754L269.027 90.8499ZM286.982 90.8499L287.967 91.0246L288.175 89.8499H286.982V90.8499ZM276.587 149.44V150.44H277.425L277.572 149.615L276.587 149.44ZM258.632 149.44L257.65 149.253L257.424 150.44H258.632V149.44ZM260.207 141.145L261.189 141.331L259.434 140.511L260.207 141.145ZM251.702 147.76L252.142 148.658L251.702 147.76ZM229.337 147.445L228.823 148.302L228.831 148.307L229.337 147.445ZM221.987 139.465L221.093 139.912L221.096 139.919L221.987 139.465ZM263.882 120.145L264.865 120.329L264.867 120.319L264.868 120.309L263.882 120.145ZM261.152 108.595L260.445 109.302L260.451 109.308L260.457 109.314L261.152 108.595ZM243.827 109.54L244.478 110.299L244.488 110.29L243.827 109.54ZM238.262 120.04L237.276 119.871L237.276 119.876L238.262 120.04ZM240.887 131.695L240.168 132.39L240.18 132.402L240.192 132.414L240.887 131.695ZM258.212 130.75L258.873 131.5L258.212 130.75ZM219.992 120.04L220.977 120.212C222.006 114.315 224.023 109.166 227.015 104.746L226.187 104.185L225.359 103.624C222.191 108.304 220.078 113.725 219.007 119.868L219.992 120.04ZM226.187 104.185L227.015 104.746C230.017 100.31 233.617 96.9222 237.809 94.5558L237.317 93.6849L236.825 92.8141C232.337 95.3477 228.517 98.9596 225.359 103.624L226.187 104.185ZM237.317 93.6849L237.809 94.5558C242.004 92.1876 246.42 91.0099 251.072 91.0099V90.0099V89.0099C246.064 89.0099 241.31 90.2822 236.825 92.8141L237.317 93.6849ZM251.072 90.0099V91.0099C255.068 91.0099 258.344 91.8224 260.953 93.3874L261.467 92.5299L261.982 91.6724C258.99 89.8775 255.336 89.0099 251.072 89.0099V90.0099ZM261.467 92.5299L260.953 93.3874C263.596 94.9734 265.481 97.0321 266.649 99.564L267.557 99.1449L268.465 98.7259C267.114 95.7978 264.938 93.4465 261.982 91.6724L261.467 92.5299ZM267.557 99.1449L268.542 99.3194L270.012 91.0244L269.027 90.8499L268.042 90.6754L266.572 98.9704L267.557 99.1449ZM269.027 90.8499V91.8499H286.982V90.8499V89.8499H269.027V90.8499ZM286.982 90.8499L285.997 90.6752L275.602 149.265L276.587 149.44L277.572 149.615L287.967 91.0246L286.982 90.8499ZM276.587 149.44V148.44H258.632V149.44V150.44H276.587V149.44ZM258.632 149.44L259.614 149.626L261.189 141.331L260.207 141.145L259.225 140.958L257.65 149.253L258.632 149.44ZM260.207 141.145L259.434 140.511C257.292 143.121 254.574 145.24 251.262 146.862L251.702 147.76L252.142 148.658C255.69 146.92 258.642 144.629 260.98 141.779L260.207 141.145ZM251.702 147.76L251.262 146.862C247.98 148.469 244.352 149.28 240.362 149.28V150.28V151.28C244.632 151.28 248.564 150.41 252.142 148.658L251.702 147.76ZM240.362 150.28V149.28C236.391 149.28 232.894 148.373 229.843 146.583L229.337 147.445L228.831 148.307C232.22 150.297 236.073 151.28 240.362 151.28V150.28ZM229.337 147.445L229.852 146.587C226.87 144.799 224.547 142.282 222.878 139.01L221.987 139.465L221.096 139.919C222.927 143.508 225.504 146.311 228.823 148.302L229.337 147.445ZM221.987 139.465L222.881 139.018C221.213 135.682 220.362 131.745 220.362 127.18H219.362H218.362C218.362 131.995 219.261 136.248 221.093 139.912L221.987 139.465ZM219.362 127.18H220.362C220.362 125.002 220.566 122.677 220.978 120.204L219.992 120.04L219.006 119.876C218.578 122.442 218.362 124.878 218.362 127.18H219.362ZM263.882 120.145L264.868 120.309C265.086 119.006 265.197 117.795 265.197 116.68H264.197H263.197C263.197 117.665 263.098 118.764 262.896 119.981L263.882 120.145ZM264.197 116.68H265.197C265.197 113.041 264.113 110.063 261.847 107.876L261.152 108.595L260.457 109.314C262.251 111.046 263.197 113.459 263.197 116.68H264.197ZM261.152 108.595L261.859 107.888C259.69 105.719 256.905 104.655 253.592 104.655V105.655V106.655C256.439 106.655 258.694 107.551 260.445 109.302L261.152 108.595ZM253.592 105.655V104.655C249.754 104.655 246.269 106.056 243.166 108.79L243.827 109.54L244.488 110.29C247.265 107.844 250.29 106.655 253.592 106.655V105.655ZM243.827 109.54L243.176 108.781C240.03 111.478 238.079 115.203 237.276 119.871L238.262 120.04L239.248 120.209C239.985 115.917 241.745 112.642 244.478 110.299L243.827 109.54ZM238.262 120.04L237.276 119.876C237.058 121.179 236.947 122.39 236.947 123.505H237.947H238.947C238.947 122.52 239.046 121.421 239.248 120.204L238.262 120.04ZM237.947 123.505H236.947C236.947 127.135 237.99 130.134 240.168 132.39L240.887 131.695L241.606 131C239.864 129.195 238.947 126.735 238.947 123.505H237.947ZM240.887 131.695L240.192 132.414C242.422 134.567 245.197 135.635 248.447 135.635V134.635V133.635C245.677 133.635 243.412 132.743 241.582 130.976L240.887 131.695ZM248.447 134.635V135.635C252.285 135.635 255.77 134.234 258.873 131.5L258.212 130.75L257.551 130C254.774 132.446 251.749 133.635 248.447 133.635V134.635ZM258.212 130.75L258.873 131.5C262.007 128.739 263.991 124.991 264.865 120.329L263.882 120.145L262.899 119.961C262.093 124.259 260.297 127.58 257.551 130L258.212 130.75ZM301.542 148.075L301.167 149.002L301.173 149.005L301.542 148.075ZM292.932 141.985L292.147 142.605L292.155 142.615L292.932 141.985ZM289.992 130.225V129.225H289.097L288.998 130.115L289.992 130.225ZM307.317 130.225L308.315 130.289L308.383 129.225H307.317V130.225ZM309.207 135.475L308.518 136.2L308.536 136.218L308.556 136.234L309.207 135.475ZM320.967 136.105L321.463 136.973L320.967 136.105ZM320.757 129.07L320.248 129.931L320.271 129.944L320.294 129.957L320.757 129.07ZM312.987 125.815L313.314 124.87L313.303 124.866L312.987 125.815ZM303.432 122.14L302.984 123.034L302.999 123.042L303.014 123.049L303.432 122.14ZM296.922 116.785L297.707 116.166L296.922 116.785ZM297.237 98.8299L298.039 99.4267L298.046 99.4169L297.237 98.8299ZM305.742 92.3199L305.358 91.3963L305.352 91.399L305.742 92.3199ZM331.152 92.4249L330.741 93.3365L330.748 93.3399L330.756 93.3431L331.152 92.4249ZM339.447 98.9349L340.266 98.3615L339.447 98.9349ZM342.387 108.385L343.384 108.451L343.387 108.418V108.385H342.387ZM342.282 109.96V110.96H343.217L343.279 110.026L342.282 109.96ZM326.007 109.96L325.009 109.893L324.938 110.96H326.007V109.96ZM313.092 104.29L312.558 103.444L312.547 103.451L312.537 103.458L313.092 104.29ZM313.722 111.64L313.192 112.488L313.212 112.501L313.233 112.512L313.722 111.64ZM321.807 115L321.48 115.945L321.49 115.949L321.807 115ZM331.152 118.78L330.694 119.669L330.709 119.677L330.725 119.684L331.152 118.78ZM337.557 123.925L336.769 124.541L336.779 124.554L336.79 124.568L337.557 123.925ZM336.822 141.88L336.058 141.234L336.053 141.24L336.049 141.246L336.822 141.88ZM327.477 148.18L327.813 149.122L327.822 149.118L327.477 148.18ZM314.037 150.28V149.28C309.523 149.28 305.486 148.562 301.91 147.145L301.542 148.075L301.173 149.005C305.018 150.528 309.31 151.28 314.037 151.28V150.28ZM301.542 148.075L301.916 147.148C298.405 145.73 295.684 143.792 293.708 141.355L292.932 141.985L292.155 142.615C294.379 145.358 297.398 147.48 301.167 149.002L301.542 148.075ZM292.932 141.985L293.717 141.365C291.758 138.884 290.782 136.058 290.782 132.85H289.782H288.782C288.782 136.502 289.906 139.766 292.147 142.605L292.932 141.985ZM289.782 132.85H290.782C290.782 132.422 290.845 131.598 290.986 130.335L289.992 130.225L288.998 130.115C288.858 131.371 288.782 132.298 288.782 132.85H289.782ZM289.992 130.225V131.225H307.317V130.225V129.225H289.992V130.225ZM307.317 130.225L306.319 130.161C306.162 132.585 306.874 134.638 308.518 136.2L309.207 135.475L309.895 134.75C308.739 133.652 308.191 132.205 308.315 130.289L307.317 130.225ZM309.207 135.475L308.556 136.234C310.265 137.699 312.592 138.365 315.402 138.365V137.365V136.365C312.891 136.365 311.088 135.771 309.857 134.716L309.207 135.475ZM315.402 137.365V138.365C317.761 138.365 319.801 137.923 321.463 136.973L320.967 136.105L320.471 135.237C319.193 135.967 317.522 136.365 315.402 136.365V137.365ZM320.967 136.105L321.463 136.973C323.207 135.977 324.172 134.475 324.172 132.535H323.172H322.172C322.172 133.675 321.667 134.553 320.471 135.237L320.967 136.105ZM323.172 132.535H324.172C324.172 130.598 323.067 129.147 321.219 128.183L320.757 129.07L320.294 129.957C321.666 130.673 322.172 131.532 322.172 132.535H323.172ZM320.757 129.07L321.265 128.209C319.633 127.245 316.962 126.133 313.314 124.87L312.987 125.815L312.66 126.76C316.291 128.017 318.8 129.075 320.248 129.931L320.757 129.07ZM312.987 125.815L313.303 124.866C309.545 123.614 306.396 122.401 303.849 121.231L303.432 122.14L303.014 123.049C305.647 124.258 308.868 125.496 312.67 126.764L312.987 125.815ZM303.432 122.14L303.879 121.246C301.496 120.054 299.44 118.366 297.707 116.166L296.922 116.785L296.136 117.404C298.043 119.824 300.327 121.706 302.984 123.034L303.432 122.14ZM296.922 116.785L297.707 116.166C296.051 114.064 295.192 111.39 295.192 108.07H294.192H293.192C293.192 111.75 294.152 114.886 296.136 117.404L296.922 116.785ZM294.192 108.07H295.192C295.192 104.853 296.139 101.983 298.039 99.4266L297.237 98.8299L296.434 98.2332C294.275 101.137 293.192 104.427 293.192 108.07H294.192ZM297.237 98.8299L298.046 99.4169C299.955 96.7845 302.635 94.7203 306.131 93.2409L305.742 92.3199L305.352 91.399C301.569 92.9996 298.579 95.2754 296.427 98.243L297.237 98.8299ZM305.742 92.3199L306.125 93.2435C309.692 91.7631 313.827 91.0099 318.552 91.0099V90.0099V89.0099C313.616 89.0099 309.212 89.7968 305.358 91.3963L305.742 92.3199ZM318.552 90.0099V91.0099C323.272 91.0099 327.326 91.7967 330.741 93.3365L331.152 92.4249L331.563 91.5133C327.837 89.8331 323.491 89.0099 318.552 89.0099V90.0099ZM331.152 92.4249L330.756 93.3431C334.179 94.82 336.788 96.8804 338.627 99.5084L339.447 98.9349L340.266 98.3615C338.186 95.3895 335.264 93.1098 331.548 91.5067L331.152 92.4249ZM339.447 98.9349L338.627 99.5084C340.467 102.136 341.387 105.085 341.387 108.385H342.387H343.387C343.387 104.685 342.347 101.334 340.266 98.3615L339.447 98.9349ZM342.387 108.385L341.389 108.318L341.284 109.893L342.282 109.96L343.279 110.026L343.384 108.451L342.387 108.385ZM342.282 109.96V108.96H326.007V109.96V110.96H342.282V109.96ZM326.007 109.96L327.004 110.026C327.162 107.661 326.443 105.668 324.786 104.177L324.117 104.92L323.448 105.663C324.591 106.692 325.131 108.059 325.009 109.893L326.007 109.96ZM324.117 104.92L324.786 104.177C323.143 102.698 320.876 102.03 318.132 102.03V103.03V104.03C320.568 104.03 322.29 104.622 323.448 105.663L324.117 104.92ZM318.132 103.03V102.03C315.967 102.03 314.088 102.478 312.558 103.444L313.092 104.29L313.626 105.135C314.756 104.422 316.237 104.03 318.132 104.03V103.03ZM313.092 104.29L312.537 103.458C311.009 104.477 310.202 105.939 310.202 107.755H311.202H312.202C312.202 106.631 312.655 105.783 313.646 105.122L313.092 104.29ZM311.202 107.755H310.202C310.202 109.739 311.314 111.315 313.192 112.488L313.722 111.64L314.252 110.792C312.769 109.865 312.202 108.851 312.202 107.755H311.202ZM313.722 111.64L313.233 112.512C315.062 113.537 317.825 114.68 321.48 115.945L321.807 115L322.134 114.055C318.509 112.8 315.881 111.703 314.21 110.767L313.722 111.64ZM321.807 115L321.49 115.949C325.241 117.199 328.305 118.44 330.694 119.669L331.152 118.78L331.609 117.891C329.098 116.599 325.932 115.321 322.123 114.051L321.807 115ZM331.152 118.78L330.725 119.684C333.101 120.806 335.113 122.421 336.769 124.541L337.557 123.925L338.345 123.309C336.501 120.949 334.243 119.134 331.579 117.876L331.152 118.78ZM337.557 123.925L336.79 124.568C338.436 126.529 339.287 129.02 339.287 132.115H340.287H341.287C341.287 128.63 340.318 125.661 338.323 123.282L337.557 123.925ZM340.287 132.115H339.287C339.287 135.673 338.206 138.695 336.058 141.234L336.822 141.88L337.585 142.526C340.057 139.604 341.287 136.117 341.287 132.115H340.287ZM336.822 141.88L336.049 141.246C333.943 143.812 330.988 145.821 327.131 147.242L327.477 148.18L327.822 149.118C331.945 147.599 335.221 145.407 337.595 142.514L336.822 141.88ZM327.477 148.18L327.14 147.238C323.348 148.592 318.985 149.28 314.037 149.28V150.28V151.28C319.168 151.28 323.765 150.567 327.813 149.122L327.477 148.18ZM408.282 95.1549L407.574 95.8621L407.582 95.8694L408.282 95.1549ZM412.691 115.21L411.709 115.026L411.707 115.035L412.691 115.21ZM406.602 149.44V150.44H407.439L407.586 149.615L406.602 149.44ZM388.752 149.44L387.767 149.264L387.558 150.44H388.752V149.44ZM394.422 117.625L395.406 117.8L395.406 117.799L394.422 117.625ZM392.217 107.65L391.509 108.357L391.517 108.365L391.525 108.372L392.217 107.65ZM376.572 108.49L377.245 109.229L376.572 108.49ZM371.952 117.625H370.952L372.936 117.801L371.952 117.625ZM371.952 117.415H372.952L370.967 117.241L371.952 117.415ZM366.282 149.44V150.44H367.12L367.266 149.614L366.282 149.44ZM348.327 149.44L347.342 149.266L347.134 150.44H348.327V149.44ZM362.082 71.7399V70.7399H361.243L361.097 71.5656L362.082 71.7399ZM380.036 71.7399L381.021 71.9131L381.228 70.7399H380.036V71.7399ZM375.312 98.6199L374.327 98.4468L373.718 101.909L376.058 99.2856L375.312 98.6199ZM383.816 92.5299L384.217 93.4461L384.225 93.4426L384.233 93.439L383.816 92.5299ZM394.737 90.2199V91.2199C400.277 91.2199 404.514 92.8015 407.574 95.862L408.282 95.1549L408.989 94.4478C405.469 90.9284 400.676 89.2199 394.737 89.2199V90.2199ZM408.282 95.1549L407.582 95.8694C410.704 98.9267 412.322 103.227 412.322 108.91H413.322H414.322C414.322 102.832 412.579 97.9632 408.981 94.4404L408.282 95.1549ZM413.322 108.91H412.322C412.322 110.799 412.119 112.837 411.709 115.026L412.691 115.21L413.674 115.394C414.104 113.103 414.322 110.941 414.322 108.91H413.322ZM412.691 115.21L411.707 115.035L405.617 149.265L406.602 149.44L407.586 149.615L413.676 115.385L412.691 115.21ZM406.602 149.44V148.44H388.752V149.44V150.44H406.602V149.44ZM388.752 149.44L389.736 149.615L395.406 117.8L394.422 117.625L393.437 117.449L387.767 149.264L388.752 149.44ZM394.422 117.625L395.406 117.799C395.623 116.569 395.737 115.459 395.737 114.475H394.737H393.737C393.737 115.311 393.64 116.301 393.437 117.451L394.422 117.625ZM394.737 114.475H395.737C395.737 111.338 394.834 108.773 392.908 106.928L392.217 107.65L391.525 108.372C392.959 109.746 393.737 111.731 393.737 114.475H394.737ZM392.217 107.65L392.924 106.943C391.076 105.095 388.516 104.235 385.392 104.235V105.235V106.235C388.147 106.235 390.137 106.985 391.509 108.357L392.217 107.65ZM385.392 105.235V104.235C381.666 104.235 378.479 105.398 375.898 107.751L376.572 108.49L377.245 109.229C379.424 107.242 382.117 106.235 385.392 106.235V105.235ZM376.572 108.49L375.898 107.751C373.32 110.102 371.696 113.365 370.967 117.449L371.952 117.625L372.936 117.801C373.607 114.045 375.063 111.218 377.245 109.229L376.572 108.49ZM371.952 117.625H372.952V117.415H371.952H370.952V117.625H371.952ZM371.952 117.415L370.967 117.241L365.297 149.266L366.282 149.44L367.266 149.614L372.936 117.589L371.952 117.415ZM366.282 149.44V148.44H348.327V149.44V150.44H366.282V149.44ZM348.327 149.44L349.311 149.614L363.066 71.9143L362.082 71.7399L361.097 71.5656L347.342 149.266L348.327 149.44ZM362.082 71.7399V72.7399H380.036V71.7399V70.7399H362.082V71.7399ZM380.036 71.7399L379.052 71.5668L374.327 98.4468L375.312 98.6199L376.296 98.7931L381.021 71.9131L380.036 71.7399ZM375.312 98.6199L376.058 99.2856C378.267 96.809 380.982 94.8618 384.217 93.4461L383.816 92.5299L383.416 91.6138C379.931 93.1381 376.976 95.2509 374.565 97.9543L375.312 98.6199ZM383.816 92.5299L384.233 93.439C387.455 91.9625 390.951 91.2199 394.737 91.2199V90.2199V89.2199C390.682 89.2199 386.898 90.0174 383.4 91.6209L383.816 92.5299Z" fill="black" mask="url(#path-3-outside-2_189_159)"/>
</svg>
